<?xml version="1.0" encoding="utf-8"?>
<!-- Generator: Adobe Illustrator 19.2.0, SVG Export Plug-In . SVG Version: 6.00 Build 0)  -->
<svg version="1.1" xmlns="http://www.w3.org/2000/svg" xmlns:xlink="http://www.w3.org/1999/xlink" x="0px" y="0px" width="119.3px"
	 height="111.2px" viewBox="0 0 119.3 111.2" style="enable-background:new 0 0 119.3 111.2;" xml:space="preserve">
<style type="text/css">
	.st0{fill:#422614;stroke:#FFFFFF;stroke-width:19;stroke-linejoin:round;stroke-miterlimit:10;}
	.st1{fill:#422614;stroke:#422614;stroke-width:11;stroke-linejoin:round;stroke-miterlimit:10;}
	.st2{fill:#4C2C14;}
	.st3{fill:url(#SVGID_1_);}
	.st4{fill:url(#SVGID_2_);}
</style>
<g id="Calque_4">
</g>
<g id="logo">
	<g id="Calque_3">
		<path class="st0" d="M102.3,39.9c-3.8,0.7-7.7,1.5-11.8,2.5c-16.3,3.9-27.4,7.3-34.6,9.9c3.6-3.9,8.4-7.4,14.3-9.2
			C85,38.6,93,40.2,93,40.2s-0.1-4.6,0.3-8.1c0.4-3.5,1.5-7.8,1.5-7.8L84.4,11.2c0,0-5-1.1-9.9-0.9c-33.4,0.9-63.8,24.8-63.8,54.5
			c0,19.6,9.1,27.6,18.7,30.5c14.6,6.8,33.6,5.3,35.2,5c2.6-0.5,27.2-5.9,32.9-26.9c0.8-3,1.2-5.4,1.4-7.3c1-0.3,10.4-2.2,10.4-2.2
			v-7.1v-8.1L102.3,39.9z M47.8,73.2l7.1,3.4c-1.8,0.6-3.7,1-5.5,1C48.6,76.3,48,74.8,47.8,73.2z"/>
		<path class="st1" d="M102.3,39.9c-3.8,0.7-7.7,1.5-11.8,2.5c-16.3,3.9-27.4,7.3-34.6,9.9c3.6-3.9,8.4-7.4,14.3-9.2
			C85,38.6,93,40.2,93,40.2s-0.1-4.6,0.3-8.1c0.4-3.5,1.5-7.8,1.5-7.8L84.4,11.2c0,0-5-1.1-9.9-0.9c-33.4,0.9-63.8,24.8-63.8,54.5
			c0,19.6,9.1,27.6,18.7,30.5c14.6,6.8,33.6,5.3,35.2,5c2.6-0.5,27.2-5.9,32.9-26.9c0.8-3,1.2-5.4,1.4-7.3c1-0.3,10.4-2.2,10.4-2.2
			v-7.1v-8.1L102.3,39.9z M47.8,73.2l7.1,3.4c-1.8,0.6-3.7,1-5.5,1C48.6,76.3,48,74.8,47.8,73.2z"/>
	</g>
	<g>
		<path class="st2" d="M102.3,39.9L47.6,72.1c-0.1-0.7-0.1-1.5,0-2.2c0.4-8,7.9-22.3,22.7-26.8C85,38.6,93,40.2,93,40.2
			s-0.1-4.6,0.3-8.1c0.4-3.5,1.5-7.8,1.5-7.8L84.4,11.2c0,0-72.1,31.2-72.1,57.9c0,35.6,49.5,31.7,52.2,31.2
			c2.6-0.5,27.2-5.9,32.9-26.9c0.8-3,1.2-5.4,1.4-7.3c1-0.3,10.4-2.2,10.4-2.2v-7.1v-8.1 M62.4,84c-8.7-0.3-13.6-4.5-14.6-10.8
			l13.1,6.3c0,0,11.3-4.5,20.6-7.8C78.9,77.1,70.8,84.3,62.4,84z"/>
	</g>
	<linearGradient id="SVGID_1_" gradientUnits="userSpaceOnUse" x1="56.5104" y1="96.9023" x2="56.5104" y2="10.3006">
		<stop  offset="0" style="stop-color:#D97E2D"/>
		<stop  offset="0.9893" style="stop-color:#CA4728"/>
	</linearGradient>
	<path class="st3" d="M102.3,54V39.9c-3.8,0.7-7.7,1.5-11.8,2.5C55.8,50.6,44.8,57,44.8,57s1.2,4.7,1.5,7.3c0.3,2.7,0.3,2.7,0.3,2.7
		v5.7c0,0,12.5-5,22.9-8.7C66.7,70,57.7,78,48.3,77.6C36.9,77.2,31.4,70.9,31.9,62c0.5-8.9,8.9-24.6,25.2-29.8
		c17.4-5.5,25.3-3.3,25.3-3.3s-0.1-5.1,0.3-9c0.4-3.9,1.7-8.7,1.7-8.7s-5-1.1-9.9-0.9c-33.4,0.9-63.8,24.8-63.8,54.5
		c0,39.6,37.1,31.6,40,31.1S81,89.3,87.4,66c0.9-3.3,1.4-6,1.6-8.1C93.1,56.6,97.6,55.3,102.3,54L102.3,54z"/>
	<linearGradient id="SVGID_2_" gradientUnits="userSpaceOnUse" x1="47.574" y1="66.2399" x2="47.574" y2="10.3608">
		<stop  offset="0" style="stop-color:#D97E2D;stop-opacity:0"/>
		<stop  offset="0.9893" style="stop-color:#FAB257;stop-opacity:0.4"/>
	</linearGradient>
	<path class="st4" d="M84,13.2c0.3-1.2,0.5-1.9,0.5-1.9s-5-1.1-9.9-0.9c-33.4,0.9-63.8,24.8-63.8,54.5c0,0.5,0,0.9,0,1.4
		c0.4-29.4,30.6-53,63.8-53.9C78.6,12.3,82.6,12.9,84,13.2z"/>
</g>
</svg>
