<?xml version="1.0" encoding="utf-8"?>
<svg version="1.1" xmlns="http://www.w3.org/2000/svg" xmlns:xlink="http://www.w3.org/1999/xlink" x="0px" y="0px" width="371.6px"
	 height="174.8px" viewBox="0 0 371.6 174.8" style="enable-background:new 0 0 371.6 174.8;" xml:space="preserve">
<style type="text/css">
	.st0{display:none;}
	.st1{display:inline;fill:#625E5E;}
	.st2{fill:#442203;stroke:#FFFFFF;stroke-width:19;stroke-linejoin:round;stroke-miterlimit:10;}
	.st3{fill:#442203;stroke:#442203;stroke-width:11;stroke-linejoin:round;stroke-miterlimit:10;}
	.st4{display:inline;fill:#2F1B07;}
	.st5{fill:#4E2907;}
	.st6{fill:url(#SVGID_1_);}
	.st7{fill:url(#SVGID_2_);}
	.st8{fill:url(#SVGID_3_);}
	.st9{fill:url(#SVGID_4_);}
	.st10{fill:url(#SVGID_5_);}
	.st11{fill:url(#SVGID_6_);}
	.st12{fill:url(#SVGID_7_);}
	.st13{fill:url(#SVGID_8_);}
	.st14{fill:url(#SVGID_9_);}
	.st15{fill:url(#SVGID_10_);}
	.st16{fill:url(#SVGID_11_);}
	.st17{fill:url(#SVGID_12_);}
	.st18{fill:url(#SVGID_13_);}
	.st19{fill:url(#SVGID_14_);}
	.st20{fill:url(#SVGID_15_);}
	.st21{fill:url(#SVGID_16_);}
	.st22{fill:url(#SVGID_17_);}
	.st23{fill:url(#SVGID_18_);}
	.st24{fill:url(#SVGID_19_);}
	.st25{fill:url(#SVGID_20_);}
	.st26{fill:#2E1A07;}
	.st27{fill:#FCFBFA;}
</style>
<g id="bakground">
	<path class="st2" d="M349.7,87.9c-5.3,0.1-11.5,0-11.5,0l-24,8.1c0,0,7.8,3.7-10.3,7.1c5.7-11.7,14.7-24,14.7-24s-6.8-0.9-12.6-0.9
		s-12.3,0.4-12.3,0.4c-0.7-2.7-4.7-18.5-5.9-21.5c0-0.1-0.1-0.2-0.1-0.2c-0.4-0.9-1.7-4-3.2-7.5c0.1-0.1,0.2-0.1,0.3-0.2
		c5.4-3.5,20.6-14.8,20.6-14.8l-0.5-3.6c0,0-2.8-1.9-4.8-2.9s-4.8-2-4.8-2s-9.9,7.7-15.6,11.7c-2.4-6.9-6.1-18.5-6.1-18.5
		s-2.4,0.4-5.8,2c-0.6,0.3-1.2,0.6-1.7,0.9c0,0,0,0,0,0c-1.2,0.6-3.8,0.2-4.3-1.3c0,0,0,0,0,0c-0.2-3.4-1.1-4.8-3-4.5
		c-2.6,0.5-4.6,0.6-4.8,1.4s-1.1-4-11.4-4c-2.2,0-5.5,0.7-8.8,2.3c-2.1-0.4-3-4.2-6.8-4.8c-0.3,0-0.7-0.1-1.2-0.1
		c-2.6-0.2-9.3-0.7-18.5-0.3c-10.3,0.4-15.6,2.2-15.6,2.2c-8.1,1.4-17-3.3-22.1-3c0,0-8.3,0.5-16.6,1.7s-14.3,3.1-14.3,3.1l-2-1.1
		c0,0-1.1-0.3-5.3,0s-4.5,0.7-4.5,0.7v3.4l1.9,10c-1.6,0.4-3.4,0.8-5.8,1.5c-2.2,0.6-4.3,1.2-6.4,1.9c-1.1-6.6-2.2-14.7-2.2-14.7
		s-2.8,0.5-5.4,1.4s-4.6,1.6-4.6,1.6l-3.1-0.4c0,0-10.2,2.9-18.4,5.9s-13.6,6.1-13.6,6.1l2.3,14.1c0,0,5.9-3.8,12.3-7
		c0.7,3.3,2.1,9.6,2.8,14.1c0.1,0.4,0.1,0.8,0.2,1.2c0.2,1.9,0.5,3.7,0.6,5.3c0.2,1.7,0.3,3.2,0.5,4.5c0.7,6.3,1.8,13.2,1.8,13.2
		s-11.4-2.7-16.4-2.6C40.3,74.6,9.9,98.5,9.9,128.2c0,19.6,9.1,27.6,18.7,30.5c14.6,6.8,33.6,5.3,35.2,5c1.5-0.3,10.3-2.2,18.5-7.7
		c0,0,0,0,0,0c0.4-0.3,0.7-0.5,0.9-0.6c1.9-1.3,25-16.5,41.7-17.5c17.4-1,40.3-0.6,79.3-1.7c37.9-1,65,16.4,69.2,19.4
		c0.1,0,0.1,0.1,0.2,0.1c0,0,0.1,0.1,0.1,0.1c0.2,0.1,0.4,0.3,0.6,0.4c6.9,4.2,18.1,5,25.6,2.9c2.2-0.6,4.1-1.3,5.8-2
		c-0.3,4.5-0.3,7.9-0.3,7.9s4.6-0.8,9.1-1.3c4.5-0.6,8.7-0.4,8.7-0.4l15.6-4.5l0-0.3c0-0.8,0-3.2,0.4-6.8c0.4-4.5,3.6-18.2,9.1-33.3
		s13.3-29.9,13.3-29.9S355,87.9,349.7,87.9z"/>
	<path class="st3" d="M349.7,87.9c-5.3,0.1-11.5,0-11.5,0l-24,8.1c0,0,7.8,3.7-10.3,7.1c5.7-11.7,14.7-24,14.7-24s-6.8-0.9-12.6-0.9
		s-12.3,0.4-12.3,0.4c-0.7-2.7-4.7-18.5-5.9-21.5c0-0.1-0.1-0.2-0.1-0.2c-0.4-0.9-1.7-4-3.2-7.5c0.1-0.1,0.2-0.1,0.3-0.2
		c5.4-3.5,20.6-14.8,20.6-14.8l-0.5-3.6c0,0-2.8-1.9-4.8-2.9s-4.8-2-4.8-2s-9.9,7.7-15.6,11.7c-2.4-6.9-6.1-18.5-6.1-18.5
		s-2.4,0.4-5.8,2c-0.6,0.3-1.2,0.6-1.7,0.9c0,0,0,0,0,0c-1.2,0.6-3.8,0.2-4.3-1.3c0,0,0,0,0,0c-0.2-3.4-1.1-4.8-3-4.5
		c-2.6,0.5-4.6,0.6-4.8,1.4s-1.1-4-11.4-4c-2.2,0-5.5,0.7-8.8,2.3c-2.1-0.4-3-4.2-6.8-4.8c-0.3,0-0.7-0.1-1.2-0.1
		c-2.6-0.2-9.3-0.7-18.5-0.3c-10.3,0.4-15.6,2.2-15.6,2.2c-8.1,1.4-17-3.3-22.1-3c0,0-8.3,0.5-16.6,1.7s-13.3,3.1-14.3,3.1
		s-2-1.1-2-1.1s-1.1-0.3-5.3,0s-4.5,0.7-4.5,0.7c-3.6,1.5-7.8,2.1-12.4,2.1c0,0-2.8,0.5-5.4,1.4s-4.6,1.6-4.6,1.6l-3.1-0.4
		c0,0-10.2,2.9-18.4,5.9s-13.6,6.1-13.6,6.1l2.3,14.1c0,0,5.9-3.8,12.3-7c0.7,3.3,2.1,9.6,2.8,14.1c0.1,0.4,0.1,0.8,0.2,1.2
		c0.2,1.9,0.5,3.7,0.6,5.3c0.2,1.7,0.3,3.2,0.5,4.5c0.7,6.3,1.8,13.2,1.8,13.2s-11.4-2.7-16.4-2.6C40.3,74.6,9.9,98.5,9.9,128.2
		c0,19.6,9.1,27.6,18.7,30.5c14.6,6.8,33.6,5.3,35.2,5c1.5-0.3,10.3-2.2,18.5-7.7c0,0,0,0,0,0c0.4-0.3,0.7-0.5,0.9-0.6
		c1.9-1.3,25-16.5,41.7-17.5c17.4-1,40.3-0.6,79.3-1.7c37.9-1,65,16.4,69.2,19.4c0.1,0,0.1,0.1,0.2,0.1c0,0,0.1,0.1,0.1,0.1
		c0.2,0.1,0.4,0.3,0.6,0.4c6.9,4.2,18.1,5,25.6,2.9c2.2-0.6,4.1-1.3,5.8-2c-0.3,4.5-0.3,7.9-0.3,7.9s4.6-0.8,9.1-1.3
		c4.5-0.6,8.7-0.4,8.7-0.4l15.6-4.5l0-0.3c0-0.8,0-3.2,0.4-6.8c0.4-4.5,3.6-18.2,9.1-33.3s13.3-29.9,13.3-29.9S355,87.9,349.7,87.9z
		"/>
</g>
<g id="Garou">
	<g class="st0">
		<path class="st4" d="M155,118.8c0.2-3.2,0-5.4,0-5.4l-3.5-10.5l-6.9,1.8l-19.6-23.9l-17.3,27l-60.9,30.8c-0.1-0.7-0.1-1.5,0-2.2
			c0.4-8,7.9-22.3,22.7-26.8c14.7-4.5,22.8-2.9,22.8-2.9s-0.1-4.6,0.3-8.1c0.4-3.5,1.5-7.8,1.5-7.8L83.7,77.6
			c0,0-72.1,31.2-72.1,57.9c0,35.6,49.5,31.7,52.2,31.2c2.6-0.5,27.2-5.9,32.9-26.9c0.8-3,1.2-5.4,1.4-7.3c1-0.3,2.9-0.9,2.9-0.9
			l-0.2,0.8l8.6,7.5c0,0,4.6-0.2,8.1,0c3.4,0.2,7.4,0.9,7.4,0.9s0.6-7.2,1.5-15.4c2.4-0.4,4.7-0.7,7.1-0.9c2.5-0.3,4.8-0.4,6.8-0.6
			c0.9,2.6,0.9,7.6,0.9,7.6l4.5,7.6c0,0,3.1-0.4,7.6-2.3c4.5-1.9,5.8-3.7,5.8-3.7s-2-4.8-4.6-11C154.8,121.4,154.9,120.3,155,118.8z
			 M61.6,150.3C52.9,150,48,145.8,47,139.6l13.1,6.3c0,0,11.3-4.5,20.6-7.8C78.2,143.5,70.1,150.7,61.6,150.3z M128.1,114
			c1.5-8.9,3.6-17.6,3.6-17.6s2,7.2,5.2,17C134.2,113.5,131.2,113.7,128.1,114z"/>
		<path class="st4" d="M338.3,90.9l-15.5,11.7c0,0-4,8.1-6.6,14.8c-2.4,6.3-6.1,19.1-8.1,27.8c-6.2,2.3-14.8-8.6-14.8-8.6l0.5-54.9
			l-11,12.7l-22.7-15.8l-40.7,11.8l-3,10.6c-0.4,1.2-0.8,2.5-1.1,3.8l0,0.1l0,0c-1.1,4.8-1.6,10.3-0.7,15.6
			c-5.3-1.5-17.8-5.2-20.3-7.7c10.6-2.7,20-7.7,22.3-15.6l0,0l0-0.1c0,0,0,0,0,0l2.4-11.3l-38.1-12.9l-27.3,14.7l3.3,12.1
			c0,0,2.5-1,6.1-2.3c0.6,4.2-1.1,31.1-1.1,31.1l2.4,7.9c0,0,5.2-0.2,8.1-0.3c2.9-0.1,7.3,0,7.3,0s0.1-10.3-0.3-20.1
			c1.8,2.1,4.5,5,6.8,7.2c4,3.8,18.3,16.2,18.3,16.2s3.4-2.5,4.8-4c1.4-1.5,4.6-5.6,4.6-5.6l1.9-4.9c1.5,4.7,4.3,9,9,12.2
			c17.6,10.2,31.9,1.3,38.5-6.5c2.1-2.1,4-3.9,5.7-5.7c-0.6,1.7-1,3.3-1.4,4.8c-2.5,11.6-2.1,20.5,3.8,27.1s20.2,8.1,29,5.7
			c2.2-0.6,4.1-1.3,5.8-2c-0.3,4.5-0.3,7.9-0.3,7.9s4.6-0.8,9.1-1.3c4.5-0.6,8.7-0.4,8.7-0.4l15.6-4.5L338.3,90.9z M178.8,105.2
			c-0.2-4.6-0.5-9.4-0.7-12.9c1.3-0.3,2.5-0.6,3.4-0.7c7-1,16.5-1.3,16.8,3.6C198.8,100,180.1,104.9,178.8,105.2z M240.7,126.7
			c-4.2,0.1-12.5-3.7-11.7-15.8c0.7-12.1,11.9-15.4,14.4-15.5c2.5-0.1,6.3,0.7,7.9,3c1.3,1.8,3.2,0.5,4.8-0.7c0.7,1.6,1.2,4.1,1.2,8
			C257.2,120.3,244.9,126.7,240.7,126.7z"/>
	</g>
	<g>
		<path class="st5" d="M155,115.8c0.2-3.2,0-5.4,0-5.4l-3.5-10.5l-6.9,1.8l-19.6-23.9l-17.3,27l-60.9,30.8c-0.1-0.7-0.1-1.5,0-2.2
			c0.4-8,7.9-22.3,22.7-26.8c14.7-4.5,22.8-2.9,22.8-2.9s-0.1-4.6,0.3-8.1c0.4-3.5,1.5-7.8,1.5-7.8L83.7,74.6
			c0,0-72.1,31.2-72.1,57.9c0,35.6,49.5,31.7,52.2,31.2c2.6-0.5,27.2-5.9,32.9-26.9c0.8-3,1.2-5.4,1.4-7.3c1-0.3,2.9-0.9,2.9-0.9
			l-0.2,0.8l8.6,7.5c0,0,4.6-0.2,8.1,0c3.4,0.2,7.4,0.9,7.4,0.9s0.6-7.2,1.5-15.4c2.4-0.4,4.7-0.7,7.1-0.9c2.5-0.3,4.8-0.4,6.8-0.6
			c0.9,2.6,0.9,7.6,0.9,7.6l4.5,7.6c0,0,3.1-0.4,7.6-2.3c4.5-1.9,5.8-3.7,5.8-3.7s-2-4.8-4.6-11C154.8,118.4,154.9,117.3,155,115.8z
			 M61.6,147.3C52.9,147,48,142.8,47,136.6l13.1,6.3c0,0,11.3-4.5,20.6-7.8C78.2,140.5,70.1,147.7,61.6,147.3z M128.1,111
			c1.5-8.9,3.6-17.6,3.6-17.6s2,7.2,5.2,17C134.2,110.5,131.2,110.7,128.1,111z"/>
		<path class="st5" d="M338.3,87.9l-15.5,11.7c0,0-4,8.1-6.6,14.8c-2.4,6.3-6.1,19.1-8.1,27.8c-6.2,2.3-14.8-8.6-14.8-8.6l0.5-54.9
			l-11,12.7l-22.7-15.8l-40.7,11.8l-3,10.6c-0.4,1.2-0.8,2.5-1.1,3.8l0,0.1l0,0c-1.1,4.8-1.6,10.3-0.7,15.6
			c-5.3-1.5-17.8-5.2-20.3-7.7c10.6-2.7,20-7.7,22.3-15.6l0,0l0-0.1c0,0,0,0,0,0l2.4-11.3l-38.1-12.9l-27.3,14.7l3.3,12.1
			c0,0,2.5-1,6.1-2.3c0.6,4.2-1.1,31.1-1.1,31.1l2.4,7.9c0,0,5.2-0.2,8.1-0.3c2.9-0.1,7.3,0,7.3,0s0.1-10.3-0.3-20.1
			c1.8,2.1,4.5,5,6.8,7.2c4,3.8,18.3,16.2,18.3,16.2s3.4-2.5,4.8-4c1.4-1.5,4.6-5.6,4.6-5.6l1.9-4.9c1.5,4.7,4.3,9,9,12.2
			c17.6,10.2,31.9,1.3,38.5-6.5c2.1-2.1,4-3.9,5.7-5.7c-0.6,1.7-1,3.3-1.4,4.8c-2.5,11.6-2.1,20.5,3.8,27.1s20.2,8.1,29,5.7
			c2.2-0.6,4.1-1.3,5.8-2c-0.3,4.5-0.3,7.9-0.3,7.9s4.6-0.8,9.1-1.3c4.5-0.6,8.7-0.4,8.7-0.4l15.6-4.5L338.3,87.9z M178.8,102.2
			c-0.2-4.6-0.5-9.4-0.7-12.9c1.3-0.3,2.5-0.6,3.4-0.7c7-1,16.5-1.3,16.8,3.6C198.8,97,180.1,101.9,178.8,102.2z M240.7,123.7
			c-4.2,0.1-12.5-3.7-11.7-15.8c0.7-12.1,11.9-15.4,14.4-15.5c2.5-0.1,6.3,0.7,7.9,3c1.3,1.8,3.2,0.5,4.8-0.7c0.7,1.6,1.2,4.1,1.2,8
			C257.2,117.3,244.9,123.7,240.7,123.7z"/>
	</g>
	<g>
		<linearGradient id="SVGID_1_" gradientUnits="userSpaceOnUse" x1="83.1689" y1="160.2959" x2="83.1689" y2="62.5395">
			<stop  offset="0" style="stop-color:#D97E2E"/>
			<stop  offset="0.9893" style="stop-color:#C94628"/>
		</linearGradient>
		<path class="st6" d="M151.5,105.9c0.3-3.6,0-6,0-6s-1.6-0.1-4.6-0.2c-1.6-3.7-3.1-7.4-4.4-10.4c-5-11.6-9.8-26.8-9.8-26.8
			s-6.2,0.9-9.8,1.8c-3.6,0.9-8.4,3.4-8.4,3.4s-4.3,17.1-6.7,28.6c-0.4,1.8-0.8,3.8-1.2,6c-5.3,0.9-10.9,1.9-16.8,3.3
			C55,114,44,120.4,44,120.4s1.2,4.7,1.5,7.3s0.3,2.7,0.3,2.7v5.7c0,0,12.5-5,22.9-8.7C66,133.4,57,141.4,47.5,141
			c-11.3-0.4-16.9-6.8-16.4-15.7c0.5-8.9,8.9-24.6,25.2-29.8c17.4-5.5,25.3-3.3,25.3-3.3s-0.1-5.1,0.3-9c0.4-3.9,1.7-8.7,1.7-8.7
			s-5-1.1-9.9-0.9C40.4,74.6,10,98.5,10,128.2c0,39.6,37.1,31.6,40,31.1s30.3-6.6,36.7-29.9c0.9-3.3,1.4-6,1.6-8.1
			c4.8-1.4,10-3,15.4-4.4c-1.5,7-2.7,12.7-2.7,12.7s5.2-0.3,9,0c3.8,0.3,8.3,1,8.3,1s0.6-8,1.7-17.1c2.6-0.4,5.3-0.8,7.9-1
			c2.8-0.3,5.3-0.5,7.6-0.7c4,11.5,6,16.9,6,16.9s3.5-0.4,8.5-2.6s6.5-4.2,6.5-4.2s-2.3-5.4-5.2-12.2
			C151.3,108.8,151.4,107.5,151.5,105.9z M121.5,100.6c1.7-9.9,4-19.6,4-19.6s2.2,8,5.8,18.9C128.3,100,125,100.2,121.5,100.6z"/>
		<linearGradient id="SVGID_2_" gradientUnits="userSpaceOnUse" x1="186.1272" y1="128.6228" x2="186.1272" y2="61.5651">
			<stop  offset="0" style="stop-color:#D97E2E"/>
			<stop  offset="0.9893" style="stop-color:#C94628"/>
		</linearGradient>
		<path class="st7" d="M195.2,99.1c13.5-3.4,25.5-10.3,25.5-21.5c0-17.5-38.4-21.6-69.2-7.8c0,0,1.1,3.5,1.5,6.8s0.6,7.9,0.6,7.9
			s2.8-1.1,6.8-2.6c0.6,4.6,1.3,10.7,1.5,16.7c0.4,12.2,0,26.8,0,26.8s5.8-0.3,9-0.3s8.1,0,8.1,0s0.1-11.5-0.4-22.4
			c2,2.3,5,5.6,7.5,8c4.4,4.3,20.3,18,20.3,18s3.8-2.8,5.3-4.5c1.6-1.7,5.1-6.3,5.1-6.3s-7.2-5.9-11.7-9.4
			C202.5,106.4,198.7,102.7,195.2,99.1z M183,89.6c-1.9,0.4-3.6,0.8-5,1.1c-0.3-5.2-0.5-10.4-0.7-14.4c1.4-0.4,2.8-0.6,3.8-0.8
			c7.8-1.1,18.4-1.4,18.8,4C200.2,85,190.5,88,183,89.6z"/>
		<linearGradient id="SVGID_3_" gradientUnits="userSpaceOnUse" x1="250.0852" y1="131.0955" x2="250.0852" y2="64.7408">
			<stop  offset="0" style="stop-color:#D97E2E"/>
			<stop  offset="0.9893" style="stop-color:#C94628"/>
		</linearGradient>
		<path class="st8" d="M282.8,86.9c-0.2-6.4-2.3-17.3-4.4-18.3c-1.4-0.6-6.1,0-10.5,2.1c-3.9-4.5-12.9-6.1-18-5.9
			c-10.2,0.3-18.3,4.6-25.1,12s-14.4,36.8,4.1,49.3c19.6,11.3,35.6,1.5,42.9-7.3C281.3,109.3,283,93.4,282.8,86.9z M246.9,114.7
			c-4.7,0.1-13.9-4.1-13.1-17.6s13.3-17.1,16-17.3s7,0.8,8.8,3.3c1.4,2,3.6,0.6,5.3-0.8c0.8,1.8,1.3,4.5,1.3,8.9
			C265.3,107.6,251.6,114.7,246.9,114.7z"/>
		<linearGradient id="SVGID_4_" gradientUnits="userSpaceOnUse" x1="318.377" y1="160.6228" x2="318.377" y2="78.2448">
			<stop  offset="0" style="stop-color:#D97E2E"/>
			<stop  offset="0.9893" style="stop-color:#C94628"/>
		</linearGradient>
		<path class="st9" d="M349.8,87.9c-5.3,0.1-11.5,0-11.5,0s-4.5,9-7.3,16.4c-2.7,7-6.8,21.2-9,30.9c-6.9,2.5-18.9,5.1-23.3-0.6
			c-5.1-6.6-1.1-17.3,4.4-29.6s15.7-26,15.7-26s-6.8-0.9-12.6-0.9s-12.3,0.4-12.3,0.4s-14.4,26.1-17.2,39s-2.3,22.9,4.2,30.1
			s22.4,9,32.3,6.3c2.4-0.7,4.6-1.4,6.5-2.3c-0.3,5-0.4,8.8-0.4,8.8s5.1-0.9,10.1-1.5c5-0.6,9.6-0.4,9.6-0.4s-0.1-2.6,0.4-7.1
			s3.6-18.2,9.1-33.3s13.3-29.9,13.3-29.9S355.1,87.9,349.8,87.9z"/>
	</g>
	<g>
		<linearGradient id="SVGID_5_" gradientUnits="userSpaceOnUse" x1="126.5711" y1="102.596" x2="126.5711" y2="99.8472">
			<stop  offset="0" style="stop-color:#D97E2E;stop-opacity:0"/>
			<stop  offset="0.9893" style="stop-color:#FFB355;stop-opacity:0.4"/>
		</linearGradient>
		<path class="st10" d="M132,101.8c-0.2-0.7-0.4-1.3-0.6-2c-2.7,0.1-6.7,0.4-9.8,0.7c-0.1,0.7-0.2,1.4-0.4,2
			C124.7,102.3,129,102,132,101.8z"/>
		<linearGradient id="SVGID_6_" gradientUnits="userSpaceOnUse" x1="46.8356" y1="129.5732" x2="46.8356" y2="73.6942">
			<stop  offset="0" style="stop-color:#D97E2E;stop-opacity:0"/>
			<stop  offset="0.9893" style="stop-color:#FFB355;stop-opacity:0.4"/>
		</linearGradient>
		<path class="st11" d="M73.8,75.7c4-0.1,8.1,0.6,9.5,0.8c0.3-1.2,0.5-1.9,0.5-1.9s-5-1.1-9.9-0.9C40.4,74.6,10,98.5,10,128.2
			c0,0.5,0,0.9,0,1.4C10.4,100.2,40.6,76.6,73.8,75.7z"/>
		<linearGradient id="SVGID_7_" gradientUnits="userSpaceOnUse" x1="153.7985" y1="122.4808" x2="153.7985" y2="110.0208">
			<stop  offset="0" style="stop-color:#D97E2E;stop-opacity:0"/>
			<stop  offset="0.9893" style="stop-color:#FFB355;stop-opacity:0.4"/>
		</linearGradient>
		<path class="st12" d="M156.4,121.9c0,0-2.2-5.2-5-11.9c-0.1,0.6-0.1,1.2-0.2,1.6c2,4.7,3.7,8.8,4.6,10.8
			C156.2,122.1,156.4,121.9,156.4,121.9z"/>
		<linearGradient id="SVGID_8_" gradientUnits="userSpaceOnUse" x1="81.7092" y1="92.2894" x2="81.7092" y2="92.1685">
			<stop  offset="0" style="stop-color:#D97E2E;stop-opacity:0"/>
			<stop  offset="0.9893" style="stop-color:#FFB355;stop-opacity:0.4"/>
		</linearGradient>
		<path class="st13" d="M81.7,92.3c0,0,0,0,0-0.1C81.7,92.2,81.7,92.2,81.7,92.3C81.7,92.3,81.7,92.3,81.7,92.3z"/>
		<linearGradient id="SVGID_9_" gradientUnits="userSpaceOnUse" x1="97.848" y1="122.146" x2="97.848" y2="62.5395">
			<stop  offset="0" style="stop-color:#D97E2E;stop-opacity:0"/>
			<stop  offset="0.9893" style="stop-color:#FFB355;stop-opacity:0.4"/>
		</linearGradient>
		<path class="st14" d="M151.5,99.9c0,0-1.6-0.1-4.6-0.2c-1.6-3.7-3.1-7.4-4.4-10.4c-5-11.6-9.8-26.8-9.8-26.8s-6.3,0.9-9.8,1.8
			c-3.6,0.9-8.4,3.4-8.4,3.4s-4.3,17.1-6.7,28.6c-0.4,1.8-0.8,3.8-1.2,6c-5.3,0.9-10.9,1.9-16.8,3.3C55,114,44,120.4,44,120.4
			s0.2,0.7,0.4,1.8c2.3-1.2,14.4-7,45.3-14.4c5.8-1.4,11.5-2.5,16.8-3.3c0.4-2.2,0.9-4.2,1.2-6c2.3-11.6,6.7-28.6,6.7-28.6
			s4.8-2.5,8.4-3.4c3.6-0.9,9.8-1.8,9.8-1.8s4.8,15.2,9.8,26.8c1.3,3,2.8,6.6,4.4,10.4c2.9,0.1,4.6,0.2,4.6,0.2s0.1,0.7,0.1,1.8
			C151.7,101.4,151.5,99.9,151.5,99.9z"/>
		<linearGradient id="SVGID_10_" gradientUnits="userSpaceOnUse" x1="49.9296" y1="143.0504" x2="49.9296" y2="127.3428">
			<stop  offset="0" style="stop-color:#D97E2E;stop-opacity:0"/>
			<stop  offset="0.9893" style="stop-color:#FFB355;stop-opacity:0.4"/>
		</linearGradient>
		<path class="st15" d="M47.5,143c9.4,0.3,18.5-7.6,21.2-13.7c-0.5,0.2-1,0.3-1.4,0.5c-3.8,5.6-11.6,11.5-19.8,11.2
			c-10.5-0.4-16-5.8-16.4-13.7c0,0,0,0,0,0C30.6,136.3,36.2,142.6,47.5,143z"/>
		<linearGradient id="SVGID_11_" gradientUnits="userSpaceOnUse" x1="102.2168" y1="129.5394" x2="102.2168" y2="118.8864">
			<stop  offset="0" style="stop-color:#D97E2E;stop-opacity:0"/>
			<stop  offset="0.9893" style="stop-color:#FFB355;stop-opacity:0.4"/>
		</linearGradient>
		<path class="st16" d="M103.1,119c-1.3,6-2.2,10.5-2.2,10.5s0.2,0,0.4,0c0.5-2.2,1.3-6.1,2.2-10.6C103.4,118.9,103.3,119,103.1,119
			z"/>
		<linearGradient id="SVGID_12_" gradientUnits="userSpaceOnUse" x1="161.9697" y1="125.2894" x2="161.9697" y2="111.876">
			<stop  offset="0" style="stop-color:#D97E2E;stop-opacity:0"/>
			<stop  offset="0.9893" style="stop-color:#FFB355;stop-opacity:0.4"/>
		</linearGradient>
		<path class="st17" d="M162.1,111.9c0,7.5-0.2,13.4-0.2,13.4s0,0,0,0C162,122.6,162.1,117.6,162.1,111.9z"/>
		<linearGradient id="SVGID_13_" gradientUnits="userSpaceOnUse" x1="188.9601" y1="92.749" x2="188.9601" y2="79.5395">
			<stop  offset="0" style="stop-color:#D97E2E;stop-opacity:0"/>
			<stop  offset="0.9893" style="stop-color:#FFB355;stop-opacity:0.4"/>
		</linearGradient>
		<path class="st18" d="M199.9,81.5c0-0.3,0.1-1.8,0-2c0,5.9-9.9,8.6-16.8,10.1c-1.9,0.4-5,1.1-5,1.1v2c0,0,3.1-0.7,5-1.1
			C190.5,90,200.2,87,199.9,81.5z"/>
		<linearGradient id="SVGID_14_" gradientUnits="userSpaceOnUse" x1="186.1272" y1="78.8492" x2="186.1272" y2="61.5651">
			<stop  offset="0" style="stop-color:#D97E2E;stop-opacity:0"/>
			<stop  offset="0.9893" style="stop-color:#FFB355;stop-opacity:0.4"/>
		</linearGradient>
		<path class="st19" d="M220.7,78.8c0-0.4,0.1-0.8,0.1-1.2c0-17.5-38.4-21.6-69.2-7.8c0,0,0.2,0.7,0.5,1.8
			C182.2,58.3,219.5,62.1,220.7,78.8z"/>
		<linearGradient id="SVGID_15_" gradientUnits="userSpaceOnUse" x1="205.8872" y1="119.0952" x2="205.8872" y2="99.1369">
			<stop  offset="0" style="stop-color:#D97E2E;stop-opacity:0"/>
			<stop  offset="0.9893" style="stop-color:#FFB355;stop-opacity:0.4"/>
		</linearGradient>
		<path class="st20" d="M205.2,108.5c-2.3-1.8-7-6.3-10-9.3c-0.3,0.4-0.5,1.2,0,2c3.5,3.5,7.3,7.2,10,9.3c3.5,2.7,8.6,6.9,10.7,8.6
			c0.6-0.7,0.9-1.2,0.9-1.2S209.7,112,205.2,108.5z"/>
		<linearGradient id="SVGID_16_" gradientUnits="userSpaceOnUse" x1="249.5744" y1="116.7485" x2="249.5744" y2="91.989">
			<stop  offset="0" style="stop-color:#D97E2E;stop-opacity:0"/>
			<stop  offset="0.9893" style="stop-color:#FFB355;stop-opacity:0.4"/>
		</linearGradient>
		<path class="st21" d="M246.9,116.7c4.7-0.1,18.3-7.1,18.4-23.4c0-0.5,0-0.9,0-1.4c-0.4,15.8-13.7,22.7-18.4,22.8
			c-4.4,0.1-12.6-3.6-13.1-14.9C233.4,112.8,242.3,116.8,246.9,116.7z"/>
		<linearGradient id="SVGID_17_" gradientUnits="userSpaceOnUse" x1="250.0885" y1="102.4035" x2="250.0885" y2="64.7408">
			<stop  offset="0" style="stop-color:#D97E2E;stop-opacity:0"/>
			<stop  offset="0.9893" style="stop-color:#FFB355;stop-opacity:0.4"/>
		</linearGradient>
		<path class="st22" d="M249.9,66.7c5.1-0.1,14.1,1.4,18,5.9c4.4-2.1,9.1-2.7,10.5-2.1c2.1,1,4.2,11.8,4.4,18.2c0-0.7,0-1.3,0-1.9
			c-0.2-6.4-2.3-17.3-4.4-18.3c-1.4-0.6-6.1,0-10.5,2.1c-3.9-4.5-12.9-6.1-18-5.9c-10.2,0.3-18.3,4.6-25.1,12
			c-3.7,4.1-7.7,14.8-7.5,25.7c0.2-10.2,3.9-19.8,7.5-23.7C231.6,71.3,239.7,67,249.9,66.7z"/>
		<linearGradient id="SVGID_18_" gradientUnits="userSpaceOnUse" x1="296.8831" y1="131.7776" x2="296.8831" y2="78.2448">
			<stop  offset="0" style="stop-color:#D97E2E;stop-opacity:0"/>
			<stop  offset="0.9893" style="stop-color:#FFB355;stop-opacity:0.4"/>
		</linearGradient>
		<path class="st23" d="M293.8,80.7c0,0,6.5-0.4,12.3-0.4c4.3,0,9,0.4,11.3,0.7c0.8-1.2,1.3-1.8,1.3-1.8s-6.8-0.9-12.6-0.9
			s-12.3,0.4-12.3,0.4s-14.4,26.1-17.2,39c-1.1,5.2-1.7,9.9-1.6,14.1c0.1-3.7,0.7-7.7,1.6-12.1C279.4,106.7,293.8,80.7,293.8,80.7z"
			/>
		<linearGradient id="SVGID_19_" gradientUnits="userSpaceOnUse" x1="329.0262" y1="140.1218" x2="329.0262" y2="87.9299">
			<stop  offset="0" style="stop-color:#D97E2E;stop-opacity:0"/>
			<stop  offset="0.9893" style="stop-color:#FFB355;stop-opacity:0.4"/>
		</linearGradient>
		<path class="st24" d="M298.6,136.7c4.4,5.7,16.5,3.2,23.3,0.6c2.3-9.7,6.4-23.9,9-30.9c2.8-7.4,7.3-16.4,7.3-16.4s6.3,0.1,11.5,0
			c4,0,8.9,0.2,10.9,0.4c0.6-1.2,1-1.9,1-1.9s-6.7-0.5-11.9-0.4s-11.5,0-11.5,0s-4.5,9-7.3,16.4c-2.7,7-6.8,21.2-9,30.9
			c-6.9,2.5-18.9,5.1-23.3-0.6c-1.5-1.9-2.2-4.2-2.3-6.7C296.1,131.3,296.8,134.3,298.6,136.7z"/>
		<linearGradient id="SVGID_20_" gradientUnits="userSpaceOnUse" x1="319.4404" y1="160.6228" x2="319.4404" y2="153.8448">
			<stop  offset="0" style="stop-color:#D97E2E;stop-opacity:0"/>
			<stop  offset="0.9893" style="stop-color:#FFB355;stop-opacity:0.4"/>
		</linearGradient>
		<path class="st25" d="M319.5,153.9c-0.2,3.9-0.2,6.7-0.2,6.7s0,0,0,0c0-1.6,0.1-4,0.3-6.8C319.6,153.9,319.5,153.9,319.5,153.9z"
			/>
	</g>
</g>
<g id="TheFox">
	<g>
		<path class="st26" d="M261.8,31.6c0.4-9.2,0.1-13-2.9-12.4c-2.6,0.5-4.6,0.6-4.8,1.4s-1.1-4-11.4-4c-5.9,0-19.7,4.9-19.9,20.6
			c-0.2,15.7,12.6,19,16.9,19C247.8,56.2,260.9,51.3,261.8,31.6z M241,45.8c-8.6-0.3-7.9-8.7-7.9-8.7c0.1-2.7,1.6-11.1,9.6-11.3
			c5.4-0.2,5,2.6,6.1,2.8s1.3-1.6,2.2,0.1C252.4,31.4,249.6,46.1,241,45.8z"/>
		<path class="st26" d="M206.5,30.8c0,0,0.2-4.5,0.3-6.4c8.3-0.3,19,0.3,19,0.3s0.3-2.8,0.6-4.6s1.3-4.9,1.3-4.9l-0.5-3.9
			l-35.3,10.9l0.5,3.9c0,0,1.2-0.3,5.1-0.8c0.1,1.9-0.1,6.6-0.1,6.6l-5.2,4.9l0.5,3.9c0,0,1.4-0.4,3.8-0.9c-0.3,2.2-2.5,7-2.5,7
			l0.5,3.9c0,0,2.5-0.1,5.3,0.6s5.3,1.8,5.3,1.8s0.4-8.5,0.8-14.1c0.2,0,0.3,0,0.5,0c8,0.1,10.2,0.7,10.2,0.7s-0.1-3.1,0-5
			s0.4-3.8,0.4-3.8l-0.5-3.9L206.5,30.8z"/>
		<path class="st26" d="M127.1,17.8l2.5,13.3c0,0-3.8,0.9-6.4,1.6c-2.2,0.6-6.4,1.9-6.4,1.9l-12.1-15.2v3.4c0,0,2.4,7.8,4,14.6
			c-0.8,0.3-4.4-1.7-4.4-1.7V39c0,0,0.8,2,1.2,3.2c0.3,1.2,0.9,4,0.9,4s1-0.3,3.8-1.1c1,6.5,1.8,13.5,1.8,13.5s2.1-1,4.9-1.3
			c3.7-0.4,5.1-0.1,5.1-0.1v-3.4c0,0-2.9-7.5-3.7-11.3c3.9-1.1,9-2.1,12.9-2.7c1.1,6.7,2.6,16.3,2.6,16.3s2-0.8,4.3-1.9
			s5.3-1.3,5.3-1.3v-3.4l-16.3-35V17.8z"/>
		<path class="st26" d="M171.8,44.8l0.3-3.1l-0.3-3.8c0,0-11.3,4.7-15.9,5.5c0-2.3-0.2-4.6-0.6-7.3c4.4-0.5,8.7-0.9,8.7-0.9
			s0-1.4,0-3.4s0.6-4.6,0.6-4.6l-0.3-3.8c0,0-6.2,4.7-9.7,5.3c-0.4-2.4-0.8-4.7-1.2-6.6c5.4-0.9,14.8-1.8,14.8-1.8s0.4-1.8,0.7-3.2
			c0.5-2.1,1.3-3.5,1.3-3.5l-0.3-3.8l-31,4.8l0.3,3.8c0,0,0.5,2.2,0.7,3.6c0.2,1.8,0.1,3.8,0.1,3.8s1.7-0.5,3.9-1.2
			c0.5,1.3,0.9,2.8,1.3,4.4c0.1,0.6-3.5-0.8-3.5-0.8l0.3,3.8c0,0,0.8,1.8,1.1,2.9s0.6,3.4,0.6,3.4s0.5-0.3,2.6-0.8
			c0.2,4.3,0.1,12.3,0.1,12.3l0.3,3.8c0,0,3.5-1.7,11.9-2.5s13.3-0.2,13.3-0.2s-0.3-2.9-0.2-4.6S171.8,44.8,171.8,44.8z"/>
		<path class="st26" d="M101.7,18.9c0,0-9.7,6.6-17.9,9.6s-14.1,2.4-14.1,2.4l2.3,14.1c0,0,5.9-3.8,12.3-7c0.7,3.3,2.1,9.6,2.8,14.1
			c0.6,3.6,0.9,8,1.3,10.9c0.3,2.4,0.5,3.6,0.5,3.6s2.8-1.3,5-2.2s5.7-2.2,5.7-2.2s0.1-1.6-0.5-3.6c-1-3.5-2.9-8.6-3.7-12.3
			c-0.8-3.6-1.5-8.8-1.9-12.3c4.8-1.7,8.8-2.9,8.8-2.9L101.7,18.9z"/>
		<path class="st26" d="M283.8,50c0.4-0.2,0.8-0.5,1.1-0.7c5.4-3.5,20.6-14.8,20.6-14.8l-0.5-3.6l-24.7,10.5l-17.6-17l0.5,3.6
			c0,0,5.2,13.1,7.8,19.2c-4.5,2.6-16.3,5.3-16.3,5.3l0.5,3.6c0,0,1.9,1.7,4.3,2.9s5,2.1,5,2.1s4.6-2.4,10.2-5.6
			c2.3,5,4.7,10,4.7,10s3.6-1.7,4.8-2.3c1.5-0.8,4.1-2.3,4.1-2.3c0.1,0.1-0.5-3.6-0.5-3.6S284.6,52,283.8,50z"/>
	</g>
	<g>
		<path class="st27" d="M261.8,28.7c0.4-9.2,0.1-13-2.9-12.4c-2.6,0.5-4.6,0.6-4.8,1.4s-1.1-4-11.4-4c-5.9,0-19.7,4.9-19.9,20.6
			c-0.2,15.7,12.6,19,16.9,19C247.8,53.3,260.9,48.4,261.8,28.7z M241,42.9c-8.6-0.3-7.9-8.7-7.9-8.7c0.1-2.7,1.6-11.1,9.6-11.3
			c5.4-0.2,5,2.6,6.1,2.8s1.3-1.6,2.2,0.1C252.4,28.5,249.6,43.2,241,42.9z"/>
		<path class="st27" d="M206.1,26.9c0.1-2.2,0.2-4.5,0.3-6.4c8.3-0.3,19,0.3,19,0.3s0.3-2.8,0.6-4.6s1.3-4.9,1.3-4.9
			s-7.7-0.9-19.7-0.4c-10.3,0.4-15.6,2.2-15.6,2.2s-0.3,2.4-0.3,4.5s0.3,4.7,0.3,4.7s1.2-0.3,5.1-0.8c0.1,1.9,0.1,4.1-0.1,6.6
			c-3.4,0.6-4.7,1.2-4.7,1.2s-0.2,2.5-0.2,4.1s0.2,3.6,0.2,3.6s1.4-0.4,3.8-0.9c-0.9,6-2,10.9-2,10.9s2.5-0.1,5.3,0.6
			s5.3,1.8,5.3,1.8s0.4-8.5,0.8-14.1c0.2,0,0.3,0,0.5,0c8,0.1,10.2,0.7,10.2,0.7s-0.1-3.1,0-5s0.4-3.8,0.4-3.8
			S211.5,26.7,206.1,26.9z"/>
		<path class="st27" d="M136.9,13.7c0,0-1.1-0.3-5.3,0s-4.5,0.7-4.5,0.7s1.4,7.1,2.5,13.3c-1.7,0.4-3.8,0.9-6.4,1.6
			c-2.2,0.6-4.3,1.2-6.4,1.9c-1.1-6.6-2.2-14.7-2.2-14.7s-2.8,0.5-5.4,1.4s-4.6,1.6-4.6,1.6s2.4,7.8,4,14.6
			c-2.9,1.1-4.4,1.7-4.4,1.7s0.8,2,1.2,3.2c0.3,1.2,0.9,4,0.9,4s1-0.3,3.8-1.1c1,6.5,1.8,13.5,1.8,13.5s2.1-1,4.9-1.3
			c3.7-0.4,5.1-0.1,5.1-0.1s-2.3-8.2-3.7-14.7c3.9-1.1,9-2.1,12.9-2.7c1.1,6.7,2.6,16.3,2.6,16.3s1.9-1,4.3-1.9
			c3.3-1.4,5.3-1.3,5.3-1.3s-2.8-12.8-3.9-18.4C138.3,25.3,136.9,13.7,136.9,13.7z"/>
		<path class="st27" d="M171.5,41l0.3-3.1c0,0-10.1,0.7-16.2,1.8c0-2.3-0.2-4.6-0.6-7.3c4.4-0.5,8.7-0.9,8.7-0.9s0-1.4,0-3.4
			s0.6-4.6,0.6-4.6s-4.8,0.6-10.1,1.6c-0.4-2.4-0.8-4.7-1.2-6.6c5.4-0.9,14.8-1.8,14.8-1.8s0.4-1.8,0.7-3.2c0.5-2.1,1.3-3.5,1.3-3.5
			s-8.3,0.5-16.6,1.7s-14.3,3.1-14.3,3.1s0.5,2.2,0.7,3.6c0.2,1.8,0.1,3.8,0.1,3.8s1.7-0.5,3.9-1.2c0.6,1.7,1.3,3.9,1.7,6.2
			c-2.5,0.7-3.6,1.2-3.6,1.2s0.8,1.8,1.1,2.9s0.6,3.4,0.6,3.4s0.5-0.3,2.6-0.8c0.8,6.8,0.5,16,0.5,16s3.5-1.7,11.9-2.5
			s13.3-0.2,13.3-0.2s-0.3-2.9-0.2-4.6S171.5,41,171.5,41z"/>
		<path class="st27" d="M69.7,30.9l1.8,10.5c0,0,5.9-3.8,12.3-7c0.7,3.3,2.1,9.6,2.8,14.1c1,6.4,1.8,14.6,1.8,14.6s2.7-1.4,4.9-2.3
			s5.8-2.1,5.8-2.1s-2.9-10.1-4.2-15.9c-0.8-3.6-1.5-8.8-1.9-12.3c4.8-1.7,8.8-2.9,8.8-2.9v-8.8c0,0-10.2,2.9-18.4,5.9
			S69.7,30.9,69.7,30.9z"/>
		<path class="st27" d="M284.4,45.7c5.4-3.5,20.6-14.8,20.6-14.8s-2.8-1.9-4.8-2.9s-4.8-2-4.8-2s-9.9,7.7-15.6,11.7
			c-2.4-6.9-6.1-18.5-6.1-18.5s-2.4,0.4-5.8,2s-5.2,3.1-5.2,3.1s5.2,13.1,7.8,19.2c-7,4.1-15.8,8.9-15.8,8.9s1.9,1.7,4.3,2.9
			s5,2.1,5,2.1s4.6-2.4,10.2-5.6c2.3,5,4.7,10,4.7,10s3.6-1.7,4.8-2.3c1.5-0.8,4.1-2.3,4.1-2.3c0.1,0.2-2.4-5.5-4.6-10.8
			C283.7,46.2,284.1,45.9,284.4,45.7z"/>
	</g>
</g>
</svg>
